<svg width="17" height="17" viewBox="0 0 17 17" fill="none" xmlns="http://www.w3.org/2000/svg">
<path fill-rule="evenodd" clip-rule="evenodd" d="M8.34767 11.0391C8.19504 11.0391 8.04307 10.9875 7.91923 10.8838L3.90256 7.53654C3.61872 7.30023 3.57989 6.87781 3.81687 6.59396C4.05319 6.31012 4.47494 6.27196 4.75945 6.50828L8.35504 9.50471L11.9446 6.61606C12.2325 6.38443 12.6542 6.42995 12.8858 6.71781C13.1175 7.00567 13.0719 7.42675 12.7841 7.65905L8.76741 10.8911C8.64491 10.9895 8.49629 11.0391 8.34767 11.0391Z" fill="white"/>
<mask id="mask0" mask-type="alpha" maskUnits="userSpaceOnUse" x="3" y="6" width="11" height="6">
<path fill-rule="evenodd" clip-rule="evenodd" d="M8.34767 11.0391C8.19504 11.0391 8.04307 10.9875 7.91923 10.8838L3.90256 7.53654C3.61872 7.30023 3.57989 6.87781 3.81687 6.59396C4.05319 6.31012 4.47494 6.27196 4.75945 6.50828L8.35504 9.50471L11.9446 6.61606C12.2325 6.38443 12.6542 6.42995 12.8858 6.71781C13.1175 7.00567 13.0719 7.42675 12.7841 7.65905L8.76741 10.8911C8.64491 10.9895 8.49629 11.0391 8.34767 11.0391Z" fill="white"/>
</mask>
<g mask="url(#mask0)">
<rect x="0.314453" y="0.328552" width="16.0667" height="16.0667" fill="white"/>
</g>
</svg>
