<svg width="18" height="18" viewBox="0 0 18 18" fill="none" xmlns="http://www.w3.org/2000/svg">
<path d="M16.5 2.33332H14V1.49999C14 1.03916 13.6275 0.666656 13.1667 0.666656H4.83334C4.37251 0.666656 4.00001 1.03916 4.00001 1.49999V2.33332H1.50001C1.03917 2.33332 0.666672 2.70582 0.666672 3.16666V5.66666C0.666672 9.25832 2.16584 11.425 4.68251 11.51C5.41584 12.7675 6.67917 13.6742 8.16667 13.925V15.6667H6.50001V17.3333H11.5V15.6667H9.83334V13.925C11.32 13.6733 12.5842 12.7667 13.3175 11.51C15.8342 11.425 17.3333 9.25832 17.3333 5.66666V3.16666C17.3333 2.70582 16.9608 2.33332 16.5 2.33332ZM2.33334 5.66666V3.99999H4.00001V9.01749V9.69166C2.51334 9.06499 2.33334 6.74916 2.33334 5.66666ZM14 9.69166V9.01749V3.99999H15.6667V5.66666C15.6667 6.74916 15.4867 9.06499 14 9.69166Z"/>
</svg>
