<svg width="18" height="18" viewBox="0 0 18 18" fill="none" xmlns="http://www.w3.org/2000/svg">
<path d="M8.99169 0.666656C4.39335 0.666656 0.666687 4.39416 0.666687 8.99166C0.666687 12.5183 2.86085 15.5333 5.95835 16.7467C5.88502 16.0883 5.82002 15.075 5.98669 14.3567C6.13836 13.7067 6.96335 10.2183 6.96335 10.2183C6.96335 10.2183 6.71418 9.71915 6.71418 8.98165C6.71418 7.82499 7.38502 6.96083 8.22086 6.96083C8.93169 6.96083 9.27419 7.49416 9.27419 8.13333C9.27419 8.84833 8.81919 9.91583 8.58502 10.9058C8.38919 11.7342 9.00086 12.41 9.81752 12.41C11.2967 12.41 12.435 10.85 12.435 8.59749C12.435 6.60416 11.0025 5.21083 8.95752 5.21083C6.58835 5.21083 5.19752 6.9875 5.19752 8.82333C5.19752 9.53833 5.47335 10.3058 5.81752 10.7233C5.88502 10.8058 5.89502 10.8775 5.87502 10.9617C5.81169 11.2242 5.67085 11.79 5.64419 11.9058C5.60752 12.0583 5.52335 12.0908 5.36502 12.0175C4.32585 11.5333 3.67585 10.0133 3.67585 8.79166C3.67585 6.16582 5.58335 3.75416 9.17669 3.75416C12.065 3.75416 14.3092 5.81166 14.3092 8.5625C14.3092 11.4325 12.5 13.74 9.98918 13.74C9.14502 13.74 8.35252 13.3025 8.08086 12.785C8.08086 12.785 7.66336 14.3742 7.56169 14.7633C7.37419 15.4867 6.86668 16.3933 6.52752 16.9467C7.30668 17.1875 8.13418 17.3175 8.99252 17.3175C13.59 17.3175 17.3175 13.59 17.3175 8.99249C17.3175 4.39499 13.5892 0.666656 8.99169 0.666656Z"/>
</svg>
