<svg width="20" height="20" viewBox="0 0 20 20" fill="none" xmlns="http://www.w3.org/2000/svg">
<path d="M3 10H2V18C2 19.104 2.896 20 4 20H9V10H4H3ZM16 10H11V20H16C17.104 20 18 19.104 18 18V10H17H16ZM16.791 5.00003C16.922 4.58903 17 4.09603 17 3.50003C17 1.57003 15.43 3.05176e-05 13.5 3.05176e-05C11.878 3.05176e-05 10.795 1.48203 10.096 3.08503C9.407 1.57003 8.269 3.05176e-05 6.5 3.05176e-05C4.57 3.05176e-05 3 1.57003 3 3.50003C3 4.09603 3.079 4.58903 3.209 5.00003H0V9.00003H9V7.00003H10H11V7.09103V9.00003H20V5.00003H16.791ZM5 3.50003C5 2.67303 5.673 2.00003 6.5 2.00003C7.388 2.00003 8.214 3.52503 8.698 5.00003H6C5.626 5.00003 5 5.00003 5 3.50003ZM13.5 2.00003C14.327 2.00003 15 2.67303 15 3.50003C15 5.00003 14.374 5.00003 14 5.00003H11.523C12.033 3.42403 12.774 2.00003 13.5 2.00003Z" fill="#5D6488"/>
</svg>
