<svg width="20" height="16" viewBox="0 0 20 16" fill="none" xmlns="http://www.w3.org/2000/svg">
<path d="M18.325 0.25H17.4H15.55H4.45H2.6H1.675C1.16348 0.25 0.75 0.744893 0.75 1.35714V2.46429V4.60993V5.78571H1.57602C2.49732 5.78571 3.35203 6.53968 3.50003 7.628C3.68872 9.01525 2.79888 10.2143 1.675 10.2143H0.75V11.3901V13.5357V14.6429C0.75 15.2551 1.16348 15.75 1.675 15.75H2.6H4.45H15.55H17.4H18.325C18.8365 15.75 19.25 15.2551 19.25 14.6429V13.5357V11.3901V10.2143C19.25 10.2143 18.8365 10.2143 18.325 10.2143C17.2011 10.2143 16.3113 9.01525 16.5 7.628C16.648 6.53968 17.5027 5.78571 18.424 5.78571H19.25V4.60993V2.46429V1.35714C19.25 0.744893 18.8365 0.25 18.325 0.25ZM9.075 13.5357H7.225V11.3214H9.075V13.5357ZM9.075 9.10714H7.225V6.89286H9.075V9.10714ZM9.075 4.67857H7.225V2.46429H9.075V4.67857Z" />
</svg>
