<svg width="16" height="18" viewBox="0 0 16 18" fill="none" xmlns="http://www.w3.org/2000/svg">
<path d="M2.16667 17.5H13.8333C14.7533 17.5 15.5 16.7534 15.5 15.8334V6.66669C15.5 6.20586 15.1275 5.83336 14.6667 5.83336H12.1667V5.18586C12.1667 3.01169 10.5808 1.06502 8.41667 0.854189C5.93333 0.610856 3.83333 2.56502 3.83333 5.00002V5.83336H1.33333C0.8725 5.83336 0.5 6.20586 0.5 6.66669V15.8334C0.5 16.7534 1.24667 17.5 2.16667 17.5ZM12.1667 7.50002V9.16669H10.5V7.50002H12.1667ZM5.5 5.00002C5.5 3.62169 6.62167 2.50002 8 2.50002C9.37833 2.50002 10.5 3.62169 10.5 5.00002V5.83336H5.5V5.00002ZM3.83333 7.50002H5.5V9.16669H3.83333V7.50002Z"/>
</svg>
