<svg width="16" height="16" viewBox="0 0 16 16" fill="none" xmlns="http://www.w3.org/2000/svg">
<path d="M1.33333 7.16667H6.33333C6.79417 7.16667 7.16667 6.79417 7.16667 6.33333V1.33333C7.16667 0.8725 6.79417 0.5 6.33333 0.5H1.33333C0.8725 0.5 0.5 0.8725 0.5 1.33333V6.33333C0.5 6.79417 0.8725 7.16667 1.33333 7.16667ZM9.66667 7.16667H14.6667C15.1275 7.16667 15.5 6.79417 15.5 6.33333V1.33333C15.5 0.8725 15.1275 0.5 14.6667 0.5H9.66667C9.20583 0.5 8.83333 0.8725 8.83333 1.33333V6.33333C8.83333 6.79417 9.20583 7.16667 9.66667 7.16667ZM1.33333 15.5H6.33333C6.79417 15.5 7.16667 15.1275 7.16667 14.6667V9.66667C7.16667 9.20583 6.79417 8.83333 6.33333 8.83333H1.33333C0.8725 8.83333 0.5 9.20583 0.5 9.66667V14.6667C0.5 15.1275 0.8725 15.5 1.33333 15.5ZM12.1667 15.5C14.005 15.5 15.5 14.005 15.5 12.1667C15.5 10.3283 14.005 8.83333 12.1667 8.83333C10.3283 8.83333 8.83333 10.3283 8.83333 12.1667C8.83333 14.005 10.3283 15.5 12.1667 15.5Z" />
</svg>
