<svg width="18" height="18" viewBox="0 0 18 18" fill="none" xmlns="http://www.w3.org/2000/svg">
<path d="M9.00001 0.666656C4.40501 0.666656 0.666672 4.40499 0.666672 8.99999C0.666672 13.595 4.40501 17.3333 9.00001 17.3333C13.595 17.3333 17.3333 13.595 17.3333 8.99999C17.3333 4.40499 13.595 0.666656 9.00001 0.666656ZM9.83334 14H8.16667V12.3333H9.83334V14ZM10.6467 9.92916C10.4833 10.0608 10.3258 10.1867 10.2008 10.3117C9.86084 10.6508 9.83417 10.9592 9.83334 10.9725V11.0833H8.16667V10.9442C8.16667 10.8458 8.19084 9.96332 9.02167 9.13249C9.18417 8.96999 9.38584 8.80499 9.59751 8.63332C10.2092 8.13749 10.6108 7.77582 10.6108 7.27749C10.6117 6.38916 9.88834 5.66666 9.00001 5.66666C8.11167 5.66666 7.38834 6.38916 7.38834 7.27832H5.72167C5.72167 5.47082 7.19251 3.99999 9.00001 3.99999C10.8075 3.99999 12.2783 5.47082 12.2783 7.27832C12.2783 8.60916 11.2958 9.40332 10.6467 9.92916Z" />
</svg>
