<svg width="18" height="14" viewBox="0 0 18 14" fill="none" xmlns="http://www.w3.org/2000/svg">
<path d="M15.3608 3.66415C15.3717 3.80998 15.3717 3.95498 15.3717 4.09998C15.3717 8.53748 11.9942 13.6508 5.82166 13.6508C3.91999 13.6508 2.15332 13.1 0.666656 12.1433C0.936656 12.1742 1.19666 12.185 1.47749 12.185C3.04666 12.185 4.49082 11.655 5.64499 10.7508C4.16916 10.72 2.93249 9.75332 2.50582 8.42332C2.71332 8.45415 2.92166 8.47498 3.13999 8.47498C3.44082 8.47498 3.74332 8.43332 4.02416 8.36082C2.48499 8.04915 1.33249 6.69832 1.33249 5.06665V5.02498C1.77999 5.27415 2.29916 5.42998 2.84916 5.45082C1.94499 4.84915 1.35249 3.81998 1.35249 2.65582C1.35249 2.03248 1.51832 1.46082 1.80916 0.962485C3.46166 2.99832 5.94582 4.32915 8.73082 4.47498C8.67916 4.22498 8.64749 3.96582 8.64749 3.70582C8.64749 1.85582 10.1442 0.349152 12.0042 0.349152C12.9708 0.349152 13.8433 0.754151 14.4567 1.40915C15.215 1.26332 15.9417 0.982485 16.5867 0.598318C16.3375 1.37748 15.8067 2.03248 15.1108 2.44832C15.7867 2.37498 16.4417 2.18832 17.0433 1.92832C16.5867 2.59332 16.0158 3.18582 15.3608 3.66415Z"/>
</svg>
