<svg width="18" height="12" viewBox="0 0 18 12" fill="none" xmlns="http://www.w3.org/2000/svg">
<path d="M16.9942 2.0025C16.8025 1.2875 16.24 0.723329 15.5258 0.530829C14.2208 0.172496 9 0.166663 9 0.166663C9 0.166663 3.78 0.160829 2.47417 0.503329C1.77417 0.694163 1.19583 1.27083 1.0025 1.985C0.658334 3.29 0.655 5.99666 0.655 5.99666C0.655 5.99666 0.651667 8.71666 0.993333 10.0083C1.185 10.7225 1.7475 11.2867 2.4625 11.4792C3.78083 11.8375 8.9875 11.8433 8.9875 11.8433C8.9875 11.8433 14.2083 11.8492 15.5133 11.5075C16.2267 11.3158 16.7917 10.7525 16.9858 10.0383C17.3308 8.73416 17.3333 6.02833 17.3333 6.02833C17.3333 6.02833 17.35 3.3075 16.9942 2.0025ZM7.33 8.50416L7.33417 3.50416L11.6733 6.00833L7.33 8.50416Z"/>
</svg>
